<svg width="220" height="220" viewBox="0 0 220 220" fill="none" xmlns="http://www.w3.org/2000/svg">
<path d="M56.3458 178.306C59.2864 178.306 61.6703 175.922 61.6703 172.981C61.6703 170.04 59.2864 167.657 56.3458 167.657C53.4052 167.657 51.0214 170.04 51.0214 172.981C51.0214 175.922 53.4052 178.306 56.3458 178.306Z" fill="#CCCCCC"/>
<path d="M164.652 166.528C168.64 166.528 171.873 163.295 171.873 159.306C171.873 155.318 168.64 152.085 164.652 152.085C160.663 152.085 157.43 155.318 157.43 159.306C157.43 163.295 160.663 166.528 164.652 166.528Z" fill="#CCCCCC"/>
<path d="M119.51 154.596V173.738C122.293 174.527 124.336 177.087 124.336 180.127C124.336 180.156 124.331 180.185 124.331 180.214C124.767 180.161 125.207 180.127 125.652 180.127C130.846 180.127 135.198 183.685 136.432 188.491C137.177 188.38 137.933 188.322 138.702 188.322C141.122 188.322 143.412 188.874 145.455 189.856C149.104 186.516 153.964 184.479 159.298 184.479C162.493 184.479 165.513 185.209 168.209 186.512C169.758 175.553 179.168 167.121 190.553 167.121C203.017 167.121 213.124 177.228 213.124 189.692C213.124 195.994 210.539 201.691 206.371 205.786C207.751 207.867 208.719 210.239 209.184 212.79H125.856H89.6881H6.36027C6.82495 210.239 7.79303 207.867 9.17255 205.786C5.00495 201.691 2.42017 195.993 2.42017 189.691C2.42017 177.227 12.527 167.12 24.991 167.12C36.3757 167.12 45.7855 175.552 47.3344 186.511C50.0305 185.209 53.051 184.478 56.2456 184.478C61.5798 184.478 66.4396 186.516 70.0892 189.856C72.1319 188.873 74.4214 188.321 76.8416 188.321C77.6113 188.321 78.3712 188.379 79.1118 188.491C80.3461 183.684 84.6976 180.127 89.8914 180.127C90.3367 180.127 90.7772 180.16 91.2128 180.214C91.2128 180.185 91.208 180.156 91.208 180.127C91.208 177.179 93.1296 174.676 95.7919 173.81V154.596H119.51V154.596Z" fill="#CCCCCC"/>
<path d="M145.524 121.639V154.597H129.55V110.022L145.524 121.639Z" fill="#E6E6E6"/>
<path d="M85.9915 110.022V154.597H70.0181V121.639L85.9915 110.022Z" fill="#CCCCCC"/>
<path d="M129.55 58.5633V154.597H85.9915V58.5633C85.9915 56.1382 86.1125 53.7277 86.3545 51.3365H129.187C129.429 53.7277 129.55 56.1382 129.55 58.5633Z" fill="#E6E6E6"/>
<path d="M129.187 51.3365H86.3545C88.0535 34.637 95.5949 18.9831 107.773 7.21121C114.734 13.9394 120.179 21.9358 123.882 30.6727C126.656 37.2218 128.456 44.1823 129.187 51.3365Z" fill="#F24125"/>
<path opacity="0.25" d="M107.773 7.21121C107.773 7.21121 101.592 24.264 101.592 51.3365C101.592 78.409 101.592 153.92 101.592 153.92L85.9915 154.597V58.5632C85.9915 56.1382 86.1125 53.7276 86.3545 51.3365C88.0535 34.637 95.5948 18.9831 107.773 7.21121Z" fill="black"/>
<path d="M131.971 110.021H127.13V58.5628C127.13 56.2282 127.012 53.8792 126.779 51.5795C126.077 44.7066 124.352 37.9891 121.654 31.6157C118.333 23.78 113.669 16.7309 107.774 10.6329C97.0548 21.7378 90.3285 36.1875 88.7626 51.5805C88.5303 53.8787 88.4122 56.2282 88.4122 58.5623V110.021H83.5718V58.5623C83.5718 56.0656 83.6981 53.5525 83.9469 51.0916C85.7088 33.7721 93.5735 17.5702 106.092 5.46966C107.03 4.56305 108.518 4.56305 109.456 5.46966C116.621 12.3958 122.224 20.5573 126.111 29.7269C128.999 36.5456 130.844 43.7332 131.596 51.0892C131.845 53.552 131.971 56.0656 131.971 58.5618L131.971 110.021Z" fill="#333333"/>
<path d="M129.55 152.177H85.9915V157.017H129.55V152.177Z" fill="#333333"/>
<path d="M85.9915 157.017H70.0181C68.6817 157.017 67.5979 155.934 67.5979 154.597V121.639C67.5979 120.864 67.9687 120.137 68.5945 119.682L84.5679 108.065C85.3042 107.529 86.2785 107.452 87.0898 107.865C87.901 108.279 88.4117 109.112 88.4117 110.022V154.598C88.4117 155.934 87.3279 157.017 85.9915 157.017ZM72.4383 152.177H83.5713V114.775L72.4383 122.871V152.177Z" fill="#333333"/>
<path d="M145.524 157.017H129.55C128.214 157.017 127.13 155.934 127.13 154.597V143.271C127.13 141.934 128.214 140.85 129.55 140.85C130.887 140.85 131.971 141.934 131.971 143.271V152.177H143.104V122.871L131.971 114.775V136.171C131.971 137.508 130.887 138.591 129.55 138.591C128.214 138.591 127.13 137.508 127.13 136.171V110.022C127.13 109.111 127.641 108.278 128.452 107.865C129.264 107.452 130.238 107.529 130.974 108.064L146.947 119.681C147.573 120.136 147.944 120.864 147.944 121.638V154.597C147.944 155.934 146.86 157.017 145.524 157.017Z" fill="#333333"/>
<path d="M119.956 43.9166C118.896 43.9166 117.922 43.2143 117.625 42.1426C116.445 37.8903 114.807 33.7513 112.755 29.8402C112.134 28.6567 112.59 27.1935 113.774 26.5729C114.957 25.9524 116.42 26.4079 117.041 27.5918C119.251 31.8064 121.017 36.2664 122.289 40.8488C122.646 42.1368 121.892 43.4708 120.604 43.8281C120.388 43.8876 120.17 43.9166 119.956 43.9166Z" fill="white"/>
<path d="M110.874 24.4712C110.105 24.4712 109.349 24.1057 108.88 23.4252C107.943 22.067 106.939 20.731 105.897 19.4531C105.052 18.4178 105.206 16.893 106.242 16.0479C107.277 15.2023 108.802 15.3567 109.647 16.3925C110.771 17.7701 111.854 19.2111 112.864 20.6758C113.623 21.776 113.347 23.2834 112.246 24.0423C111.827 24.3323 111.348 24.4712 110.874 24.4712Z" fill="white"/>
<path d="M56.3459 180.726C52.0757 180.726 48.6012 177.251 48.6012 172.981C48.6012 168.711 52.0757 165.236 56.3459 165.236C60.6161 165.236 64.0905 168.711 64.0905 172.981C64.0905 177.251 60.6161 180.726 56.3459 180.726ZM56.3459 170.077C54.7442 170.077 53.4416 171.379 53.4416 172.981C53.4416 174.583 54.7442 175.885 56.3459 175.885C57.9476 175.885 59.2501 174.583 59.2501 172.981C59.2501 171.379 57.9476 170.077 56.3459 170.077Z" fill="#333333"/>
<path d="M164.652 168.948C159.336 168.948 155.01 164.623 155.01 159.306C155.01 153.99 159.336 149.665 164.652 149.665C169.968 149.665 174.293 153.99 174.293 159.306C174.293 164.623 169.968 168.948 164.652 168.948ZM164.652 154.505C162.004 154.505 159.851 156.659 159.851 159.306C159.851 161.954 162.005 164.108 164.652 164.108C167.299 164.108 169.453 161.954 169.453 159.306C169.453 156.659 167.299 154.505 164.652 154.505Z" fill="#333333"/>
<path d="M45.4374 198.444C45.0633 198.444 44.6833 198.357 44.328 198.173C43.1407 197.559 42.6755 196.099 43.2893 194.912C44.7438 192.097 44.9558 187.944 44.9152 186.582C44.875 185.246 45.9254 184.13 47.2613 184.09C48.5944 184.048 49.713 185.1 49.7532 186.436C49.7609 186.687 49.9119 192.64 47.5895 197.134C47.1592 197.966 46.3136 198.444 45.4374 198.444Z" fill="#333333"/>
<path d="M79.547 197.442C78.5518 197.442 77.6195 196.823 77.2667 195.832C75.8654 191.894 76.6621 188.316 76.7575 187.921C77.0711 186.622 78.379 185.824 79.6786 186.137C80.9739 186.45 81.7716 187.75 81.4657 189.045C81.4483 189.123 80.9091 191.628 81.8278 194.209C82.2755 195.469 81.6182 196.853 80.3587 197.301C80.0901 197.396 79.8161 197.442 79.547 197.442Z" fill="#333333"/>
<path d="M65.4318 196.924C65.076 196.924 64.7144 196.845 64.3727 196.679C63.1713 196.093 62.6722 194.644 63.2584 193.443C65.1297 189.606 68.6618 187.853 69.0582 187.666C70.2669 187.095 71.7098 187.613 72.28 188.821C72.8487 190.026 72.3366 191.462 71.1372 192.037C71.0655 192.073 68.7387 193.248 67.609 195.565C67.1893 196.424 66.3282 196.924 65.4318 196.924Z" fill="#333333"/>
<path d="M70.0898 192.276C69.4968 192.276 68.9111 192.058 68.4557 191.641C65.1134 188.583 60.7773 186.898 56.2457 186.898C53.4934 186.898 50.8491 187.501 48.3868 188.69C47.6912 189.026 46.8766 189.01 46.1946 188.646C45.513 188.282 45.0459 187.615 44.938 186.85C44.0125 180.301 39.9165 174.62 33.9812 171.653C32.7856 171.056 32.3006 169.602 32.8984 168.406C33.4957 167.21 34.9493 166.726 36.1454 167.324C42.5856 170.542 47.2793 176.342 49.1206 183.186C51.4072 182.436 53.7931 182.058 56.2457 182.058C61.4598 182.058 66.4701 183.817 70.5191 187.042C72.7177 186.215 75.0464 185.827 77.4404 185.911C79.4473 181.229 83.9498 178.025 89.1073 177.729C89.8953 174.835 92.0856 172.471 95.0426 171.508C96.3152 171.094 97.6797 171.79 98.0931 173.06C98.5064 174.332 97.8118 175.697 96.5407 176.111C94.8195 176.671 93.6563 178.253 93.6283 180.06C93.6312 180.112 93.6326 180.162 93.6326 180.214C93.6326 180.907 93.3354 181.566 92.8165 182.026C92.2976 182.485 91.6079 182.7 90.9191 182.616C90.5362 182.569 90.1998 182.547 89.8905 182.547C85.9136 182.547 82.445 185.238 81.4551 189.093C81.1468 190.295 79.9802 191.072 78.7512 190.884C78.122 190.79 77.4792 190.742 76.8407 190.742C74.8431 190.742 72.9239 191.178 71.1373 192.037C70.8037 192.198 70.4456 192.276 70.0898 192.276Z" fill="#333333"/>
<path d="M27.6949 215.21H6.36031C5.64248 215.21 4.96191 214.891 4.50207 214.34C4.04223 213.789 3.85104 213.062 3.97931 212.356C4.38106 210.15 5.11148 208.059 6.1575 206.115C2.17335 201.565 0 195.802 0 189.692C0 175.911 11.2109 164.701 24.9911 164.701C26.3275 164.701 27.4113 165.784 27.4113 167.121C27.4113 168.457 26.3275 169.541 24.9911 169.541C13.8799 169.541 4.84042 178.58 4.84042 189.692C4.84042 195.137 6.98134 200.24 10.8687 204.06C11.6954 204.873 11.83 206.157 11.1896 207.123C10.5119 208.145 9.95723 209.231 9.52885 210.37H27.6949C29.0314 210.37 30.1152 211.454 30.1152 212.79C30.1152 214.127 29.0314 215.21 27.6949 215.21Z" fill="#333333"/>
<path d="M41.8938 215.21H37.3758C36.0393 215.21 34.9556 214.126 34.9556 212.79C34.9556 211.453 36.0393 210.369 37.3758 210.369H41.8938C43.2303 210.369 44.314 211.453 44.314 212.79C44.314 214.126 43.2303 215.21 41.8938 215.21Z" fill="#333333"/>
<path d="M164.195 215.21H51.2518C49.9153 215.21 48.8315 214.126 48.8315 212.79C48.8315 211.453 49.9153 210.369 51.2518 210.369H164.195C165.531 210.369 166.615 211.453 166.615 212.79C166.615 214.126 165.531 215.21 164.195 215.21Z" fill="#333333"/>
<path d="M209.184 215.21H171.939C170.603 215.21 169.519 214.126 169.519 212.79C169.519 211.453 170.603 210.369 171.939 210.369H206.015C205.586 209.23 205.031 208.145 204.354 207.123C203.713 206.156 203.848 204.872 204.675 204.06C207.14 201.637 208.95 198.614 209.907 195.319C210.28 194.035 211.623 193.296 212.906 193.67C214.189 194.043 214.928 195.385 214.555 196.669C213.545 200.147 211.772 203.378 209.385 206.113C210.431 208.057 211.162 210.149 211.564 212.356C211.692 213.062 211.501 213.789 211.041 214.34C210.582 214.891 209.901 215.21 209.184 215.21Z" fill="#333333"/>
<path d="M213.124 192.112C211.787 192.112 210.704 191.028 210.704 189.692C210.704 188.323 210.566 186.956 210.294 185.629C210.026 184.319 210.87 183.041 212.18 182.772C213.486 182.504 214.768 183.348 215.036 184.658C215.373 186.304 215.544 187.998 215.544 189.692C215.544 191.028 214.46 192.112 213.124 192.112Z" fill="#333333"/>
<path d="M145.454 192.276C145.098 192.276 144.74 192.198 144.406 192.037C142.619 191.178 140.7 190.742 138.702 190.742C138.068 190.742 137.424 190.789 136.789 190.884C135.564 191.067 134.396 190.294 134.088 189.092C133.098 185.238 129.629 182.546 125.652 182.546C125.343 182.546 125.007 182.569 124.624 182.616C123.937 182.699 123.245 182.485 122.727 182.025C122.208 181.566 121.911 180.906 121.911 180.213C121.911 180.174 121.913 180.12 121.915 180.068C121.89 178.213 120.636 176.572 118.85 176.065C117.564 175.7 116.817 174.362 117.181 173.076C117.546 171.791 118.882 171.044 120.17 171.408C123.255 172.283 125.601 174.731 126.43 177.728C131.59 178.021 136.095 181.226 138.103 185.91C140.501 185.829 142.826 186.214 145.024 187.041C149.073 183.816 154.084 182.057 159.298 182.057C161.751 182.057 164.138 182.435 166.424 183.185C169.323 172.46 179.207 164.699 190.552 164.699C199.356 164.699 207.345 169.197 211.923 176.73C212.617 177.872 212.254 179.361 211.112 180.055C209.97 180.749 208.481 180.386 207.787 179.244C204.094 173.167 197.651 169.54 190.552 169.54C180.576 169.54 172 176.981 170.605 186.849C170.497 187.614 170.03 188.282 169.348 188.645C168.667 189.009 167.852 189.025 167.157 188.689C164.694 187.5 162.05 186.897 159.298 186.897C154.766 186.897 150.43 188.582 147.088 191.64C146.633 192.059 146.047 192.276 145.454 192.276Z" fill="#333333"/>
<path d="M170.106 198.444C169.23 198.444 168.384 197.966 167.954 197.134C165.632 192.64 165.783 186.687 165.791 186.436C165.831 185.1 166.955 184.04 168.283 184.09C169.617 184.13 170.667 185.243 170.629 186.578C170.628 186.628 170.515 191.547 172.255 194.912C172.868 196.099 172.403 197.56 171.216 198.173C170.861 198.356 170.481 198.444 170.106 198.444Z" fill="#333333"/>
<path d="M135.997 197.442C135.727 197.442 135.454 197.396 135.186 197.301C133.926 196.853 133.269 195.469 133.717 194.209C134.645 191.6 134.084 189.069 134.079 189.044C133.782 187.746 134.587 186.445 135.882 186.14C137.179 185.837 138.474 186.627 138.787 187.921C138.882 188.316 139.679 191.894 138.277 195.832C137.924 196.823 136.992 197.442 135.997 197.442Z" fill="#333333"/>
<path d="M150.113 196.924C149.216 196.924 148.355 196.424 147.935 195.565C146.788 193.212 144.443 192.054 144.42 192.043C143.212 191.472 142.694 190.03 143.265 188.821C143.835 187.613 145.277 187.094 146.487 187.666C146.883 187.853 150.415 189.606 152.286 193.443C152.872 194.644 152.374 196.093 151.172 196.679C150.83 196.845 150.468 196.924 150.113 196.924Z" fill="#333333"/>
<path d="M103.416 185.199C102.079 185.199 100.995 184.116 100.995 182.779V160.997C100.995 159.661 102.079 158.577 103.416 158.577C104.752 158.577 105.836 159.661 105.836 160.997V182.779C105.836 184.116 104.752 185.199 103.416 185.199Z" fill="white"/>
<path d="M112.128 185.199C110.792 185.199 109.708 184.116 109.708 182.779V160.997C109.708 159.661 110.792 158.577 112.128 158.577C113.465 158.577 114.549 159.661 114.549 160.997V182.779C114.549 184.116 113.465 185.199 112.128 185.199Z" fill="white"/>
<path d="M176.75 215.21C175.413 215.21 174.33 214.126 174.33 212.79C174.33 203.849 181.603 196.575 190.545 196.575C191.881 196.575 192.965 197.659 192.965 198.995C192.965 200.331 191.881 201.415 190.545 201.415C184.273 201.415 179.17 206.518 179.17 212.79C179.17 214.127 178.087 215.21 176.75 215.21Z" fill="#333333"/>
<path d="M188.537 157.126C188.378 157.126 188.223 157.107 188.063 157.078C187.908 157.049 187.758 157 187.613 156.938C187.468 156.879 187.327 156.802 187.192 156.715C187.061 156.628 186.94 156.526 186.824 156.415C186.374 155.965 186.117 155.345 186.117 154.706C186.117 154.546 186.132 154.387 186.165 154.232C186.195 154.077 186.243 153.927 186.301 153.782C186.364 153.632 186.437 153.491 186.524 153.36C186.611 153.23 186.712 153.104 186.824 152.993C186.94 152.881 187.061 152.78 187.192 152.692C187.327 152.605 187.468 152.533 187.613 152.47C187.758 152.412 187.908 152.363 188.063 152.334C188.378 152.271 188.697 152.271 189.012 152.334C189.167 152.363 189.317 152.412 189.462 152.47C189.607 152.533 189.747 152.605 189.883 152.692C190.014 152.78 190.139 152.881 190.251 152.993C190.362 153.104 190.464 153.23 190.551 153.36C190.638 153.491 190.711 153.632 190.774 153.782C190.832 153.927 190.88 154.077 190.909 154.232C190.943 154.387 190.958 154.546 190.958 154.706C190.958 155.34 190.701 155.965 190.251 156.415C190.139 156.526 190.014 156.628 189.883 156.715C189.747 156.802 189.607 156.879 189.462 156.938C189.317 157 189.167 157.049 189.012 157.078C188.852 157.107 188.697 157.126 188.537 157.126Z" fill="#333333"/>
<path d="M217.58 208.435C216.941 208.435 216.316 208.173 215.866 207.723C215.416 207.273 215.16 206.649 215.16 206.015C215.16 205.376 215.416 204.751 215.866 204.301C216.321 203.851 216.941 203.594 217.58 203.594C218.219 203.594 218.843 203.851 219.293 204.301C219.743 204.751 220 205.376 220 206.015C220 206.649 219.743 207.273 219.293 207.723C218.843 208.173 218.219 208.435 217.58 208.435Z" fill="#333333"/>
<path d="M43.3246 160.999C42.6857 160.999 42.0613 160.737 41.6111 160.287C41.161 159.837 40.9044 159.213 40.9044 158.579C40.9044 158.419 40.9189 158.259 40.9528 158.104C40.9819 157.949 41.0303 157.799 41.0884 157.649C41.1513 157.504 41.2239 157.364 41.311 157.233C41.403 157.102 41.4998 156.976 41.6111 156.865C42.1726 156.304 43.01 156.047 43.799 156.207C43.9539 156.236 44.1039 156.284 44.2492 156.342C44.3944 156.405 44.5347 156.478 44.6703 156.565C44.801 156.652 44.922 156.754 45.0381 156.865C45.1495 156.976 45.2463 157.102 45.3382 157.233C45.4254 157.364 45.498 157.504 45.5609 157.649C45.619 157.799 45.6674 157.949 45.6964 158.104C45.7303 158.259 45.7448 158.419 45.7448 158.579C45.7448 159.213 45.4883 159.837 45.0381 160.287C44.922 160.399 44.801 160.5 44.6703 160.587C44.5347 160.674 44.3944 160.752 44.2492 160.81C44.1039 160.873 43.9539 160.921 43.799 160.95C43.6441 160.979 43.4844 160.999 43.3246 160.999Z" fill="#333333"/>
<path d="M13.314 153.254C13.1543 153.254 12.9994 153.235 12.8396 153.206C12.6848 153.177 12.5347 153.128 12.3895 153.065C12.2443 153.007 12.1039 152.93 11.9684 152.843C11.8377 152.755 11.7118 152.654 11.6005 152.542C11.1503 152.092 10.8938 151.468 10.8938 150.834C10.8938 150.674 10.9083 150.514 10.9422 150.359C10.9712 150.205 11.0196 150.054 11.0777 149.909C11.1407 149.759 11.2133 149.619 11.3004 149.488C11.3875 149.357 11.4892 149.232 11.6005 149.12C11.7118 149.009 11.8377 148.907 11.9684 148.82C12.1039 148.733 12.2443 148.66 12.3895 148.597C12.5347 148.539 12.6848 148.491 12.8396 148.462C13.1543 148.394 13.4737 148.394 13.7884 148.462C13.9433 148.491 14.0933 148.539 14.2385 148.597C14.3837 148.66 14.529 148.733 14.6596 148.82C14.7903 148.907 14.9162 149.009 15.0275 149.12C15.1388 149.232 15.2405 149.357 15.3276 149.488C15.4148 149.619 15.4874 149.759 15.5503 149.909C15.6084 150.054 15.6568 150.205 15.6858 150.359C15.7197 150.514 15.7342 150.674 15.7342 150.834C15.7342 151.468 15.4777 152.092 15.0275 152.542C14.9162 152.654 14.7903 152.755 14.6596 152.843C14.529 152.93 14.3837 153.007 14.2385 153.065C14.0933 153.128 13.9433 153.177 13.7884 153.206C13.6335 153.235 13.4737 153.254 13.314 153.254Z" fill="#333333"/>
<path d="M103.68 201.056C102.555 201.056 101.547 200.267 101.312 199.122C100.851 196.878 98.9299 195.206 96.639 195.055C95.3054 194.967 94.2952 193.815 94.3829 192.481C94.471 191.148 95.622 190.141 96.957 190.225C101.416 190.518 105.156 193.776 106.054 198.148C106.322 199.458 105.479 200.737 104.169 201.006C104.006 201.04 103.842 201.056 103.68 201.056Z" fill="#333333"/>
<path d="M98.6162 209.205C98.4807 209.205 98.3437 209.194 98.2053 209.17C96.8877 208.945 96.0024 207.694 96.228 206.377C97.0658 201.479 100.931 197.682 105.845 196.928C110.433 196.223 114.974 198.324 117.41 202.277C118.111 203.415 117.757 204.906 116.619 205.607C115.481 206.308 113.99 205.954 113.289 204.816C111.876 202.522 109.24 201.304 106.579 201.712C103.728 202.149 101.486 204.352 100.999 207.193C100.797 208.372 99.7736 209.205 98.6162 209.205Z" fill="#333333"/>
<path d="M129.178 53.7567H120.631C119.295 53.7567 118.211 52.673 118.211 51.3365C118.211 50.0001 119.295 48.9163 120.631 48.9163H129.178C130.514 48.9163 131.598 50.0001 131.598 51.3365C131.598 52.673 130.514 53.7567 129.178 53.7567Z" fill="#333333"/>
<path d="M113.531 53.7567H86.3588C85.0224 53.7567 83.9386 52.673 83.9386 51.3365C83.9386 50.0001 85.0224 48.9163 86.3588 48.9163H113.531C114.868 48.9163 115.952 50.0001 115.952 51.3365C115.952 52.673 114.868 53.7567 113.531 53.7567Z" fill="#333333"/>
<path d="M107.771 77.5822C113.023 77.5822 117.28 73.3247 117.28 68.0727C117.28 62.8208 113.023 58.5632 107.771 58.5632C102.519 58.5632 98.2615 62.8208 98.2615 68.0727C98.2615 73.3247 102.519 77.5822 107.771 77.5822Z" fill="#61CCF2"/>
<path d="M107.771 107.556C113.023 107.556 117.28 103.298 117.28 98.0461C117.28 92.7942 113.023 88.5366 107.771 88.5366C102.519 88.5366 98.2615 92.7942 98.2615 98.0461C98.2615 103.298 102.519 107.556 107.771 107.556Z" fill="#61CCF2"/>
<path d="M107.771 77.5822C113.023 77.5822 117.28 73.3246 117.28 68.0727C117.28 62.8209 113.023 58.5632 107.771 58.5632" fill="white"/>
<path d="M107.771 107.556C113.023 107.556 117.28 103.298 117.28 98.0461C117.28 92.7942 113.023 88.5366 107.771 88.5366" fill="white"/>
<path d="M107.771 80.0024C101.193 80.0024 95.8413 74.6509 95.8413 68.0727C95.8413 61.4946 101.193 56.143 107.771 56.143C110.035 56.143 112.24 56.781 114.146 57.9877C115.275 58.7031 115.611 60.1979 114.896 61.3271C114.181 62.4564 112.686 62.7928 111.557 62.0774C110.427 61.3615 109.118 60.9835 107.771 60.9835C103.862 60.9835 100.682 64.1636 100.682 68.0727C100.682 71.9819 103.862 75.162 107.771 75.162C111.681 75.162 114.861 71.9819 114.861 68.0727C114.861 66.7363 115.945 65.6525 117.281 65.6525C118.617 65.6525 119.701 66.7363 119.701 68.0727C119.701 74.6509 114.349 80.0024 107.771 80.0024Z" fill="#333333"/>
<path d="M107.771 109.976C101.193 109.976 95.8413 104.625 95.8413 98.0466C95.8413 91.4684 101.193 86.1169 107.771 86.1169C111.139 86.1169 114.366 87.5506 116.625 90.0512C117.522 91.043 117.444 92.5735 116.452 93.4695C115.46 94.3659 113.929 94.288 113.034 93.2962C111.691 91.8097 109.773 90.9573 107.771 90.9573C103.862 90.9573 100.682 94.1375 100.682 98.0466C100.682 101.956 103.862 105.136 107.771 105.136C111.68 105.136 114.86 101.956 114.86 98.0466C114.86 96.7101 115.944 95.6264 117.281 95.6264C118.617 95.6264 119.701 96.7101 119.701 98.0466C119.701 104.624 114.349 109.976 107.771 109.976Z" fill="#333333"/>
<path d="M121.812 149.756C120.475 149.756 119.391 148.672 119.391 147.336V79.3771C119.391 78.0406 120.475 76.9568 121.812 76.9568C123.148 76.9568 124.232 78.0406 124.232 79.3771V147.336C124.232 148.672 123.148 149.756 121.812 149.756Z" fill="white"/>
<path d="M121.812 71.6319C120.475 71.6319 119.391 70.5481 119.391 69.2117V62.9191C119.391 61.5827 120.475 60.4989 121.812 60.4989C123.148 60.4989 124.232 61.5827 124.232 62.9191V69.2117C124.232 70.5486 123.148 71.6319 121.812 71.6319Z" fill="white"/>
</svg>
