<svg width="2800" height="2800" viewBox="0 0 2800 2800" fill="none" xmlns="http://www.w3.org/2000/svg">
<path d="M2800 0H0V2800H2800V0Z" fill="url(#paint0_radial_1_2489)"/>
<path d="M2559.1 1636.9C2550.6 1628.4 1899.1 2266 1833.4 2331.7C1767.7 2397.4 1744.3 2434.6 1752.8 2443.2C1761.3 2451.8 1798.6 2428.3 1864.3 2362.6C1930 2296.8 2567.6 1645.4 2559.1 1636.9Z" fill="url(#paint1_linear_1_2489)"/>
<path opacity="0.2" d="M1997.6 2198.4C1993.3 2194.1 1795.4 2385.1 1775.6 2404.9C1755.8 2424.7 1750.1 2437.3 1754.4 2441.6C1758.7 2445.9 1771.3 2440.2 1791.1 2420.4C1810.9 2400.6 2001.9 2202.6 1997.6 2198.4Z" fill="#29ABE2"/>
<path opacity="0.7" d="M1878.4 2317.6C1876.2 2315.4 1777.1 2411.1 1767.2 2421C1757.3 2430.9 1754.4 2437.3 1756.6 2439.4C1758.8 2441.5 1765.1 2438.7 1775 2428.8C1784.9 2418.9 1880.5 2319.7 1878.4 2317.6Z" fill="white"/>
<path d="M2465 1484.3C2456.5 1475.8 1605.8 2312.7 1519.8 2398.7C1433.8 2484.7 1401 2531.3 1409.5 2539.8C1418 2548.3 1464.7 2515.5 1550.6 2429.5C1636.7 2343.5 2473.5 1492.8 2465 1484.3Z" fill="url(#paint2_linear_1_2489)"/>
<path opacity="0.2" d="M1654.3 2295C1650 2290.7 1452.1 2481.7 1432.3 2501.5C1412.5 2521.3 1406.8 2533.9 1411.1 2538.2C1415.4 2542.5 1428 2536.8 1447.8 2517C1467.6 2497.2 1658.6 2299.3 1654.3 2295Z" fill="#29ABE2"/>
<path opacity="0.7" d="M1535.1 2414.2C1532.9 2412 1433.8 2507.7 1423.9 2517.6C1414 2527.5 1411.1 2533.9 1413.3 2536C1415.5 2538.2 1421.8 2535.3 1431.7 2525.4C1441.6 2515.5 1537.2 2416.4 1535.1 2414.2Z" fill="white"/>
<path d="M2635.2 1427.2C2626.7 1418.7 1975.2 2056.3 1909.5 2122C1843.8 2187.7 1820.4 2224.9 1828.9 2233.5C1837.4 2242.1 1874.7 2218.6 1940.4 2152.9C2006.1 2087.2 2643.7 1435.7 2635.2 1427.2Z" fill="url(#paint3_linear_1_2489)"/>
<path opacity="0.2" d="M2073.7 1988.7C2069.4 1984.4 1871.5 2175.4 1851.7 2195.2C1831.9 2215 1826.2 2227.6 1830.5 2231.9C1834.8 2236.2 1847.4 2230.5 1867.2 2210.7C1887 2190.9 2078 1993 2073.7 1988.7Z" fill="#29ABE2"/>
<path opacity="0.7" d="M1954.5 2107.9C1952.3 2105.7 1853.2 2201.4 1843.3 2211.3C1833.4 2221.2 1830.5 2227.6 1832.7 2229.7C1834.9 2231.9 1841.2 2229 1851.1 2219.1C1861 2209.2 1956.6 2110.1 1954.5 2107.9Z" fill="white"/>
<path d="M298.9 409.7C361.805 409.7 412.8 358.705 412.8 295.8C412.8 232.895 361.805 181.9 298.9 181.9C235.995 181.9 185 232.895 185 295.8C185 358.705 235.995 409.7 298.9 409.7Z" fill="url(#paint4_linear_1_2489)"/>
<path d="M1180.1 482.1C1211.08 482.1 1236.2 456.983 1236.2 426C1236.2 395.017 1211.08 369.9 1180.1 369.9C1149.12 369.9 1124 395.017 1124 426C1124 456.983 1149.12 482.1 1180.1 482.1Z" fill="url(#paint5_linear_1_2489)"/>
<path d="M323.4 2630.4C354.383 2630.4 379.5 2605.28 379.5 2574.3C379.5 2543.32 354.383 2518.2 323.4 2518.2C292.417 2518.2 267.3 2543.32 267.3 2574.3C267.3 2605.28 292.417 2630.4 323.4 2630.4Z" fill="url(#paint6_linear_1_2489)"/>
<path d="M2536.5 417.3C2567.48 417.3 2592.6 392.183 2592.6 361.2C2592.6 330.217 2567.48 305.1 2536.5 305.1C2505.52 305.1 2480.4 330.217 2480.4 361.2C2480.4 392.183 2505.52 417.3 2536.5 417.3Z" fill="url(#paint7_linear_1_2489)"/>
<path opacity="0.2" d="M2525.42 1041.81C2438.3 768.101 1863.82 706.582 1242.3 904.409C620.77 1102.24 187.548 1484.5 274.669 1758.21C361.79 2031.92 936.263 2093.44 1557.79 1895.62C2179.32 1697.79 2612.54 1315.53 2525.42 1041.81Z" fill="#29ABE2"/>
<path opacity="0.2" d="M2332.55 1103.2C2260.36 876.379 1784.33 825.389 1269.32 989.312C754.311 1153.24 395.34 1470 467.536 1696.82C539.732 1923.64 1015.76 1974.64 1530.77 1810.71C2045.78 1646.79 2404.75 1330.03 2332.55 1103.2Z" fill="#29ABE2"/>
<path opacity="0.2" d="M2114.05 1172.75C2058.77 999.08 1694.29 960.041 1299.95 1085.56C905.619 1211.07 630.758 1453.6 686.036 1627.27C741.313 1800.94 1105.8 1839.98 1500.13 1714.47C1894.47 1588.96 2169.33 1346.42 2114.05 1172.75Z" fill="#29ABE2"/>
<path opacity="0.2" d="M1901.27 1240.48C1862.47 1118.59 1606.62 1091.21 1329.8 1179.32C1052.98 1267.43 860.023 1437.66 898.818 1559.55C937.613 1681.43 1193.47 1708.81 1470.29 1620.7C1747.11 1532.59 1940.06 1362.36 1901.27 1240.48Z" fill="#29ABE2"/>
<path d="M1357.7 1267.6C1173.3 1326.6 1042.7 1433.7 1066.1 1506.8C1089.5 1579.9 1257.9 1591.4 1442.4 1532.4C1626.8 1473.4 1757.4 1366.3 1734 1293.2C1710.6 1220.1 1542.1 1208.6 1357.7 1267.6Z" fill="url(#paint8_radial_1_2489)"/>
<path d="M2526.3 1041.5C2513.1 1000 2488.7 963.3 2454.7 931.7C2403.7 884.3 2331.1 848.3 2242 824C2152.9 799.8 2047.4 787.4 1930.6 787.4C1726.6 787.4 1487.9 825.1 1241.9 903.4C957.8 993.8 713 1122.8 539.2 1262.4C452.3 1332.2 383.1 1404.6 335.7 1476.3C288.2 1547.9 262.5 1618.8 262.5 1685.3C262.5 1710.4 266.2 1734.9 273.7 1758.5C286.9 1800 311.3 1836.7 345.3 1868.3C396.3 1915.7 468.9 1951.7 558 1976C647.1 2000.2 752.6 2012.6 869.4 2012.6C1073.4 2012.6 1312.1 1974.9 1558.1 1896.6C1842.2 1806.2 2087 1677.2 2260.8 1537.6C2347.7 1467.8 2416.9 1395.4 2464.3 1323.7C2511.8 1252.1 2537.5 1181.2 2537.5 1114.7C2537.5 1089.6 2533.8 1065.1 2526.3 1041.5ZM2462.6 1322.6C2320.7 1536.8 1983.3 1759.1 1557.4 1894.6C1311.6 1972.8 1073.1 2010.5 869.4 2010.5C713.8 2010.5 578.3 1988.5 475.3 1945.9C423.8 1924.6 380.4 1898.2 346.6 1866.8C312.8 1835.4 288.6 1799 275.5 1757.9C268 1734.4 264.4 1710.2 264.4 1685.3C264.4 1619.3 290 1548.8 337.3 1477.4C479.2 1263.2 816.6 1040.9 1242.5 905.4C1488.3 827.2 1726.8 789.5 1930.5 789.5C2086.1 789.5 2221.6 811.5 2324.6 854.1C2376.1 875.4 2419.5 901.8 2453.3 933.2C2487.1 964.6 2511.3 1001 2524.4 1042.1C2531.9 1065.6 2535.5 1089.8 2535.5 1114.7C2535.5 1180.7 2509.9 1251.2 2462.6 1322.6Z" fill="#29ABE2"/>
<path d="M2274.1 1011.8C2231.8 972.5 2171.6 942.6 2097.8 922.6C2024 902.5 1936.5 892.3 1839.7 892.3C1670.6 892.3 1472.9 923.5 1269 988.4C1033.6 1063.3 830.7 1170.2 686.6 1285.9C614.6 1343.7 557.3 1403.8 517.9 1463.1C478.6 1522.5 457.2 1581.2 457.2 1636.4C457.2 1657.2 460.2 1677.5 466.5 1697.1C477.5 1731.5 497.7 1762 525.9 1788.2C568.2 1827.5 628.4 1857.4 702.2 1877.4C776 1897.5 863.5 1907.7 960.3 1907.7C1129.4 1907.7 1327.1 1876.5 1531 1811.6C1766.4 1736.7 1969.3 1629.8 2113.4 1514.1C2185.4 1456.3 2242.7 1396.2 2282.1 1336.9C2321.4 1277.5 2342.8 1218.8 2342.8 1163.6C2342.8 1142.8 2339.8 1122.5 2333.5 1102.9C2322.5 1068.4 2302.3 1038 2274.1 1011.8ZM2280.4 1335.8C2162.8 1513.3 1883.3 1697.4 1530.4 1809.7C1326.7 1874.5 1129.1 1905.7 960.3 1905.7C831.3 1905.7 719.2 1887.5 633.8 1852.2C591.1 1834.6 555.2 1812.7 527.2 1786.7C499.2 1760.7 479.2 1730.6 468.4 1696.5C462.2 1677.1 459.2 1657 459.2 1636.4C459.2 1581.7 480.4 1523.3 519.6 1464.2C637.2 1286.7 916.7 1102.6 1269.6 990.3C1473.3 925.5 1670.9 894.3 1839.7 894.3C1968.7 894.3 2080.8 912.5 2166.2 947.8C2208.9 965.4 2244.8 987.3 2272.8 1013.3C2300.8 1039.3 2320.8 1069.4 2331.7 1103.5C2337.9 1122.9 2340.9 1143 2340.9 1163.6C2340.8 1218.3 2319.6 1276.6 2280.4 1335.8Z" fill="#29ABE2"/>
<path d="M2069.4 1102.6C2037 1072.5 1990.9 1049.6 1934.3 1034.2C1877.8 1018.8 1810.8 1011 1736.6 1011C1607.1 1011 1455.7 1034.9 1299.6 1084.6C1119.3 1142 964 1223.8 853.6 1312.4C798.4 1356.7 754.5 1402.7 724.4 1448.2C694.3 1493.7 677.9 1538.7 677.9 1581C677.9 1596.9 680.2 1612.5 685 1627.6C693.4 1654 708.9 1677.3 730.5 1697.4C762.9 1727.5 809 1750.4 865.6 1765.8C922.1 1781.2 989.1 1789 1063.3 1789C1192.8 1789 1344.2 1765.1 1500.3 1715.4C1680.6 1658 1835.9 1576.2 1946.3 1487.6C2001.5 1443.3 2045.4 1397.3 2075.5 1351.8C2105.6 1306.3 2122 1261.3 2122 1219C2122 1203.1 2119.7 1187.5 2114.9 1172.4C2106.5 1146 2091 1122.7 2069.4 1102.6ZM2073.9 1350.7C1984 1486.5 1769.9 1627.5 1499.8 1713.5C1343.9 1763.1 1192.6 1787 1063.4 1787C964.7 1787 878.8 1773.1 813.5 1746.1C780.9 1732.6 753.4 1715.8 732 1696C710.6 1676.1 695.3 1653.1 687 1627C682.3 1612.2 680 1596.8 680 1581C680 1539.2 696.2 1494.5 726.2 1449.3C816.2 1313.5 1030.2 1172.5 1300.3 1086.5C1456.2 1036.9 1607.5 1013 1736.7 1013C1835.4 1013 1921.3 1026.9 1986.6 1053.9C2019.2 1067.4 2046.7 1084.2 2068.1 1104C2089.5 1123.9 2104.8 1146.9 2113.1 1173C2117.8 1187.8 2120.1 1203.2 2120.1 1219C2120.1 1260.8 2103.9 1305.4 2073.9 1350.7Z" fill="#29ABE2"/>
<path d="M1870.1 1191C1847.3 1169.8 1814.9 1153.7 1775.2 1142.9C1735.5 1132.1 1688.4 1126.6 1636.4 1126.6C1545.5 1126.6 1439.1 1143.4 1329.5 1178.3C1202.9 1218.6 1093.8 1276.1 1016.4 1338.3C977.7 1369.4 946.8 1401.7 925.6 1433.7C904.4 1465.7 892.9 1497.3 892.9 1527.1C892.9 1538.3 894.5 1549.3 897.9 1559.9C903.8 1578.5 914.7 1594.9 929.9 1609C952.7 1630.2 985.1 1646.3 1024.8 1657.1C1064.5 1667.9 1111.6 1673.4 1163.6 1673.4C1254.5 1673.4 1360.9 1656.6 1470.5 1621.7C1597.1 1581.4 1706.2 1523.9 1783.6 1461.7C1822.3 1430.6 1853.2 1398.3 1874.4 1366.3C1895.6 1334.3 1907.1 1302.7 1907.1 1272.9C1907.1 1261.7 1905.5 1250.7 1902.1 1240.1C1896.2 1221.6 1885.3 1205.1 1870.1 1191ZM1872.8 1365.2C1841.3 1412.8 1788 1461.4 1718.8 1505.6C1649.7 1549.8 1564.7 1589.6 1469.9 1619.8C1360.5 1654.6 1254.3 1671.4 1163.6 1671.4C1094.3 1671.4 1034.1 1661.6 988.3 1642.7C965.4 1633.2 946.1 1621.5 931.2 1607.6C916.2 1593.7 905.5 1577.6 899.7 1559.3C896.4 1548.9 894.8 1538.2 894.8 1527.1C894.8 1497.8 906.1 1466.5 927.2 1434.8C958.7 1387.2 1012 1338.6 1081.2 1294.4C1150.3 1250.2 1235.3 1210.4 1330.1 1180.2C1439.5 1145.4 1545.7 1128.6 1636.4 1128.6C1705.7 1128.6 1765.9 1138.4 1811.7 1157.3C1834.6 1166.8 1853.9 1178.5 1868.8 1192.4C1883.8 1206.3 1894.5 1222.4 1900.3 1240.7C1903.6 1251.1 1905.2 1261.8 1905.2 1272.9C1905.2 1302.2 1893.8 1333.5 1872.8 1365.2Z" fill="#29ABE2"/>
<path d="M1517.7 845C1525.87 845 1532.5 838.374 1532.5 830.2C1532.5 822.026 1525.87 815.4 1517.7 815.4C1509.53 815.4 1502.9 822.026 1502.9 830.2C1502.9 838.374 1509.53 845 1517.7 845Z" fill="url(#paint9_radial_1_2489)"/>
<path d="M1350.6 1664.4C1357.5 1664.4 1363.1 1658.8 1363.1 1651.9C1363.1 1645 1357.5 1639.4 1350.6 1639.4C1343.7 1639.4 1338.1 1645 1338.1 1651.9C1338.1 1658.8 1343.7 1664.4 1350.6 1664.4Z" fill="url(#paint10_radial_1_2489)"/>
<path d="M2032.1 1091.4C2042.98 1091.4 2051.8 1082.58 2051.8 1071.7C2051.8 1060.82 2042.98 1052 2032.1 1052C2021.22 1052 2012.4 1060.82 2012.4 1071.7C2012.4 1082.58 2021.22 1091.4 2032.1 1091.4Z" fill="url(#paint11_radial_1_2489)"/>
<path d="M460.1 1684.8C472.195 1684.8 482 1674.99 482 1662.9C482 1650.8 472.195 1641 460.1 1641C448.005 1641 438.2 1650.8 438.2 1662.9C438.2 1674.99 448.005 1684.8 460.1 1684.8Z" fill="url(#paint12_radial_1_2489)"/>
<path d="M1187.2 734.7C439.9 973.8 -70.5999 1465.4 46.9001 1832.8C164.4 2200.2 865.5 2304.3 1612.8 2065.2C2360.1 1826.2 2870.6 1334.5 2753.1 967.1C2635.6 599.7 1934.5 495.7 1187.2 734.7Z" fill="url(#paint13_radial_1_2489)"/>
<defs>
<radialGradient id="paint0_radial_1_2489" cx="0" cy="0" r="1" gradientUnits="userSpaceOnUse" gradientTransform="translate(1400 1400) scale(1817.06)">
<stop stop-color="#0054B8"/>
<stop offset="0.1248" stop-color="#024599"/>
<stop offset="0.3032" stop-color="#053274"/>
<stop offset="0.4818" stop-color="#072457"/>
<stop offset="0.6584" stop-color="#091943"/>
<stop offset="0.8323" stop-color="#0A1336"/>
<stop offset="1" stop-color="#0A1132"/>
</radialGradient>
<linearGradient id="paint1_linear_1_2489" x1="1752.76" y1="2443.16" x2="2559.02" y2="1636.89" gradientUnits="userSpaceOnUse">
<stop stop-color="#014DA8"/>
<stop offset="0.1388" stop-color="#024799" stop-opacity="0.8612"/>
<stop offset="0.3419" stop-color="#03418B" stop-opacity="0.6581"/>
<stop offset="0.589" stop-color="#043E83" stop-opacity="0.411"/>
<stop offset="1" stop-color="#043D80" stop-opacity="0"/>
</linearGradient>
<linearGradient id="paint2_linear_1_2489" x1="1409.47" y1="2539.81" x2="2464.98" y2="1484.3" gradientUnits="userSpaceOnUse">
<stop stop-color="#014DA8"/>
<stop offset="0.1388" stop-color="#024799" stop-opacity="0.8612"/>
<stop offset="0.3419" stop-color="#03418B" stop-opacity="0.6581"/>
<stop offset="0.589" stop-color="#043E83" stop-opacity="0.411"/>
<stop offset="1" stop-color="#043D80" stop-opacity="0"/>
</linearGradient>
<linearGradient id="paint3_linear_1_2489" x1="1828.84" y1="2233.48" x2="2635.11" y2="1427.22" gradientUnits="userSpaceOnUse">
<stop stop-color="#014DA8"/>
<stop offset="0.1388" stop-color="#024799" stop-opacity="0.8612"/>
<stop offset="0.3419" stop-color="#03418B" stop-opacity="0.6581"/>
<stop offset="0.589" stop-color="#043E83" stop-opacity="0.411"/>
<stop offset="1" stop-color="#043D80" stop-opacity="0"/>
</linearGradient>
<linearGradient id="paint4_linear_1_2489" x1="379.371" y1="376.309" x2="218.349" y2="215.286" gradientUnits="userSpaceOnUse">
<stop stop-color="#014DA8"/>
<stop offset="0.1388" stop-color="#024799" stop-opacity="0.8612"/>
<stop offset="0.3419" stop-color="#03418B" stop-opacity="0.6581"/>
<stop offset="0.589" stop-color="#043E83" stop-opacity="0.411"/>
<stop offset="1" stop-color="#043D80" stop-opacity="0"/>
</linearGradient>
<linearGradient id="paint5_linear_1_2489" x1="1219.82" y1="465.731" x2="1140.44" y2="386.345" gradientUnits="userSpaceOnUse">
<stop stop-color="#014DA8"/>
<stop offset="0.1388" stop-color="#024799" stop-opacity="0.8612"/>
<stop offset="0.3419" stop-color="#03418B" stop-opacity="0.6581"/>
<stop offset="0.589" stop-color="#043E83" stop-opacity="0.411"/>
<stop offset="1" stop-color="#043D80" stop-opacity="0"/>
</linearGradient>
<linearGradient id="paint6_linear_1_2489" x1="363.069" y1="2534.61" x2="283.684" y2="2614" gradientUnits="userSpaceOnUse">
<stop stop-color="#014DA8"/>
<stop offset="0.1388" stop-color="#024799" stop-opacity="0.8612"/>
<stop offset="0.3419" stop-color="#03418B" stop-opacity="0.6581"/>
<stop offset="0.589" stop-color="#043E83" stop-opacity="0.411"/>
<stop offset="1" stop-color="#043D80" stop-opacity="0"/>
</linearGradient>
<linearGradient id="paint7_linear_1_2489" x1="2496.81" y1="400.909" x2="2576.2" y2="321.523" gradientUnits="userSpaceOnUse">
<stop stop-color="#014DA8"/>
<stop offset="0.1388" stop-color="#024799" stop-opacity="0.8612"/>
<stop offset="0.3419" stop-color="#03418B" stop-opacity="0.6581"/>
<stop offset="0.589" stop-color="#043E83" stop-opacity="0.411"/>
<stop offset="1" stop-color="#043D80" stop-opacity="0"/>
</linearGradient>
<radialGradient id="paint8_radial_1_2489" cx="0" cy="0" r="1" gradientUnits="userSpaceOnUse" gradientTransform="translate(1399.99 1399.91) rotate(-17.7385) scale(350.584 138.993)">
<stop stop-color="white"/>
<stop offset="1" stop-color="white" stop-opacity="0"/>
</radialGradient>
<radialGradient id="paint9_radial_1_2489" cx="0" cy="0" r="1" gradientUnits="userSpaceOnUse" gradientTransform="translate(1517.65 830.193) scale(14.7612)">
<stop stop-color="white"/>
<stop offset="0.022588" stop-color="#FCFDFE"/>
<stop offset="1" stop-color="#84AADA"/>
</radialGradient>
<radialGradient id="paint10_radial_1_2489" cx="0" cy="0" r="1" gradientUnits="userSpaceOnUse" gradientTransform="translate(1350.63 1651.93) rotate(180) scale(12.4999)">
<stop stop-color="white"/>
<stop offset="0.022588" stop-color="#FCFDFE"/>
<stop offset="1" stop-color="#84AADA"/>
</radialGradient>
<radialGradient id="paint11_radial_1_2489" cx="0" cy="0" r="1" gradientUnits="userSpaceOnUse" gradientTransform="translate(2032.12 1071.66) rotate(45) scale(19.6958)">
<stop stop-color="white"/>
<stop offset="0.022588" stop-color="#FCFDFE"/>
<stop offset="1" stop-color="#84AADA"/>
</radialGradient>
<radialGradient id="paint12_radial_1_2489" cx="0" cy="0" r="1" gradientUnits="userSpaceOnUse" gradientTransform="translate(460.104 1662.95) rotate(-135) scale(21.8874)">
<stop stop-color="white"/>
<stop offset="0.022588" stop-color="#FCFDFE"/>
<stop offset="1" stop-color="#84AADA"/>
</radialGradient>
<radialGradient id="paint13_radial_1_2489" cx="0" cy="0" r="1" gradientUnits="userSpaceOnUse" gradientTransform="translate(1399.89 1400.02) rotate(-17.7374) scale(1420.59 698.443)">
<stop stop-color="white"/>
<stop offset="1" stop-color="white" stop-opacity="0"/>
</radialGradient>
</defs>
</svg>
